<?xml version="1.0" encoding="utf-8"?>
<!-- Generator: Adobe Illustrator 23.1.1, SVG Export Plug-In . SVG Version: 6.00 Build 0)  -->
<svg version="1.1" id="Layer_1" xmlns="http://www.w3.org/2000/svg" xmlns:xlink="http://www.w3.org/1999/xlink" x="0px" y="0px"
	 viewBox="0 0 3000 3000" style="enable-background:new 0 0 3000 3000;" xml:space="preserve">
<style type="text/css">
	.st0{opacity:0.2;}
	.st1{fill:#0C0C72;}
	.st2{fill:#FFFFFF;}
	.st3{opacity:0.3;}
	.st4{fill:#5D5D8C;}
	.st5{fill:#FFA4BC;}
	.st6{opacity:0.6;}
	.st7{fill:#FFCA9F;}
	.st8{fill:#F43760;}
	.st9{fill:#FFBB33;}
</style>
<g>
	<g>
		<g class="st0">
			<g>
				<g>
					<path class="st1" d="M2468.8,2605.5c0,114.9-434,208-969.3,208c-535.3,0-969.3-93.1-969.3-208s434-208,969.3-208
						C2034.9,2397.5,2468.8,2490.6,2468.8,2605.5"/>
				</g>
			</g>
		</g>
		<g>
			<path class="st2" d="M2233.7,2447.6l-3.7-107.4l-2.8-79.6c0,0,248.2,19.5,361-157.7c0,0,6.1,9.3,10.7,25.3
				C2615.8,2186.5,2614.3,2334.3,2233.7,2447.6"/>
		</g>
		<g class="st3">
			<g>
				<g>
					<path class="st1" d="M2233.7,2447.6l-3.7-107.4c303.1-16.8,363.4-211.8,363.4-211.8s1.9-0.1,5.4-0.2
						C2615.8,2186.5,2614.3,2334.3,2233.7,2447.6"/>
				</g>
			</g>
		</g>
		<g>
			<path class="st1" d="M2233.7,2473.1c-5.3,0-10.5-1.6-14.8-4.8c-6.4-4.6-10.3-11.9-10.6-19.7l-6.5-187c-0.2-7.2,2.6-14.2,7.8-19.2
				c5.2-5,12.3-7.5,19.5-7l0,0c2.3,0.2,234.6,15.9,337.6-146c4.6-7.3,12.7-11.7,21.3-11.8c0,0,0.1,0,0.1,0c8.6,0,16.6,4.3,21.3,11.6
				c1.5,2.4,37.4,58.8,9.4,135.1c-37.1,100.8-164.2,184.2-377.9,247.8C2238.6,2472.7,2236.1,2473.1,2233.7,2473.1z M2253.5,2286.8
				l4.4,126.8c221.2-71,292.7-151.1,313.2-206.9c6.7-18.3,8.2-34.9,7.3-48.7C2476.4,2273,2317.9,2286.4,2253.5,2286.8z"/>
		</g>
		<g>
			<path class="st4" d="M2694.9,2078.4c2.4,67.6-41.5,89.8-74,96.9c-21.7,4.8-44.7-1.1-61-16.2c-5.5-5.1-11.1-11.1-16-18.2
				c-8-11.6-14-25.7-14.6-42.5c-0.3-8.6,0.9-18,4.1-27.9c1.6-4.9,3.6-10,6.2-15.2c39.7-80.1,84.7-68.8,53.9-157
				C2593.6,1898.3,2691.2,1971.6,2694.9,2078.4"/>
		</g>
		<g class="st3">
			<g>
				<g>
					<path class="st1" d="M2694.9,2078.4c2.4,67.6-41.5,89.8-74,96.9c-21.7,4.8-44.7-1.1-61-16.2c-5.5-5.1-11.1-11.1-16-18.2
						l-14.6-42.5c-0.3-8.6,0.9-18,4.1-27.9c19.2,22.2,46.3,38.6,81.5,26.5c80-27.5-21.3-198.7-21.3-198.7
						S2691.2,1971.6,2694.9,2078.4"/>
				</g>
			</g>
		</g>
		<g>
			<path class="st1" d="M2605.9,2202.4c-23.3,0-46-8.6-63.3-24.7c-40-37.1-49.4-85.9-25.7-133.7c14.9-30.1,30.9-49,42.6-62.8
				c20.2-23.8,25.6-30.2,10.1-74.6c-3.7-10.6,0-22.3,9-28.9c9-6.6,21.3-6.5,30.3,0.2c4.4,3.3,107.3,82,111.4,199.5
				c2.2,64.3-32,109-93.9,122.6l0,0C2619.6,2201.7,2612.7,2202.4,2605.9,2202.4z M2620.9,2175.3L2620.9,2175.3L2620.9,2175.3z
				 M2626.2,1968.5c-4.8,16.9-15,30.4-27.9,45.7c-11.1,13.1-23.7,28-35.9,52.5c-13.8,27.8-9,51.9,14.7,73.8
				c10.1,9.4,24.4,13.1,38.3,10.1c37.8-8.3,55.5-31.6,54.1-71.3C2668,2035,2647.4,1996.6,2626.2,1968.5z"/>
		</g>
		<g>
			<path class="st2" d="M2518.8,1012.4c-64.2,34.8-175.6,68.6-343,34l-20.2-59.6L2112,858.1l-48.5-143.4c0,0,286.5,33.1,467.3,188.7
				C2566.3,933.8,2559.9,990.2,2518.8,1012.4"/>
		</g>
		<g>
			<path class="st5" d="M2466.9,944.1c0,0-78.9,86.8-311.2,42.6L2112,858.1c47.4-4.4,95.6-4.1,125.9,1.9
				C2346.1,881.3,2413.7,915.1,2466.9,944.1"/>
		</g>
		<g>
			<path class="st1" d="M2106.6,812.3c4.7,0.4,8.6,0.7,12.8,1.2c4.1,0.4,8.2,1,12.3,1.5c8.1,1.1,16.1,2.4,24.2,3.7
				c16,2.7,31.9,6,47.6,9.7c31.5,7.5,62.5,16.4,92.9,27.2c30.3,10.9,60.3,22.5,89.2,36.6c29,13.8,56.7,30.3,82.8,48.9
				c1.4,1,1.8,3,0.7,4.5c-0.8,1.2-2.3,1.6-3.5,1.2l-0.1,0c-30.6-9.3-60.1-19.8-90.1-28.7c-29.7-9.6-59.7-18-89.9-25.4l-22.7-5.4
				l-22.8-4.8c-15.2-3.1-30.4-5.9-45.6-8.4c-15.2-2.6-30.5-4.7-45.7-6.8c-7.6-0.9-15.2-1.9-22.8-2.6l-11.3-1.1
				c-3.7-0.4-7.6-0.7-10.8-0.8l-0.5,0c-14-0.8-24.7-12.9-23.8-26.9c0.8-14,12.9-24.7,26.9-23.8
				C2106.3,812.3,2106.5,812.3,2106.6,812.3"/>
		</g>
		<g>
			<path class="st1" d="M2309.9,1086.3c-41.6,0-88-4.4-139.3-15c-8.8-1.8-16-8.2-18.9-16.7l-112.3-331.7c-2.8-8.2-1.2-17.3,4.3-24.1
				c5.5-6.8,14-10.3,22.7-9.3c12,1.4,296.4,35.9,481,194.7c22.9,19.7,34.6,49.3,31.4,79.3c-3.2,30.2-21.1,56.8-47.9,71.3
				C2483.1,1060.6,2410.3,1086.3,2309.9,1086.3z M2195.2,1024.3c152.1,28.4,253.1-2.6,311.6-34.2c12.2-6.6,20.1-18.3,21.5-32
				c1.5-13.6-3.6-26.5-14-35.4C2381.1,808,2185,761.7,2101.1,746.3L2195.2,1024.3z"/>
		</g>
		<g>
			<path class="st2" d="M934.2,714.7l-48.5,143.4l-2.7,8l-40.9,120.6l-20.2,59.6c-78.2,16.2-144.2,17.4-198.8,10.6
				c-62.4-7.8-110-26-144.2-44.6c-41.1-22.2-47.4-78.5-12-109C647.7,747.8,934.2,714.7,934.2,714.7"/>
		</g>
		<g>
			<path class="st5" d="M530.9,944.1c0,0,78.9,86.8,311.2,42.6l43.6-128.7c-47.4-4.4-95.6-4.1-125.9,1.9
				C651.7,881.3,584,915.1,530.9,944.1"/>
		</g>
		<g class="st3">
			<g>
				<g>
					<path class="st1" d="M882.9,866.1l-40.9,120.6l-20.2,59.6c-78.2,16.2-144.2,17.4-198.8,10.6c15.3-49,42-72.1,42-96.5
						c0-28.1-134.2-16.3-134.2-16.3c49.6-32.6,177.7-67.9,255.6-89.6C825.2,843.6,857.8,851.9,882.9,866.1"/>
				</g>
			</g>
		</g>
		<g class="st6">
			<g>
				<g>
					<path class="st2" d="M471.5,939.5C620.7,822,833.3,784.9,913.9,774.7l20.3-60c0,0-286.5,33.1-467.3,188.7
						c-22.3,19.2-28,48.7-18.9,73.4C451.2,962.7,458.9,949.4,471.5,939.5"/>
				</g>
			</g>
		</g>
		<g>
			<path class="st1" d="M894,863c-3.1,0.2-7.1,0.5-10.8,0.8l-11.3,1.1c-7.6,0.7-15.2,1.7-22.8,2.5c-15.2,2.1-30.5,4.2-45.7,6.8
				c-15.2,2.5-30.5,5.3-45.6,8.4l-22.8,4.8l-22.7,5.4c-30.2,7.3-60.2,15.8-89.9,25.4c-30,9-59.5,19.5-90.1,28.7l-0.1,0
				c-1.7,0.5-3.5-0.4-4-2.1c-0.4-1.4,0.1-2.8,1.2-3.6c26.1-18.6,53.8-35.1,82.8-48.9c28.9-14.1,58.9-25.8,89.2-36.6
				c30.4-10.8,61.4-19.7,92.9-27.2c15.7-3.8,31.6-7,47.6-9.7c8-1.3,16-2.7,24.2-3.7c4.1-0.6,8.1-1.1,12.3-1.5
				c4.2-0.5,8.1-0.8,12.8-1.2c14-1.1,26.2,9.4,27.2,23.4c1,14-9.4,26.2-23.4,27.2c-0.1,0-0.2,0-0.2,0L894,863z"/>
		</g>
		<g>
			<path class="st1" d="M687.8,1086.3c-100.4,0-173.1-25.6-221-51.5c-26.7-14.5-44.6-41.1-47.9-71.3c-3.2-30,8.5-59.7,31.4-79.3
				c184.6-158.8,469-193.3,481-194.7c8.6-1,17.2,2.5,22.7,9.3c5.5,6.8,7.1,15.9,4.3,24.1L846,1054.5c-2.9,8.5-10.1,14.9-18.9,16.7
				C775.8,1081.9,729.4,1086.3,687.8,1086.3z M896.7,746.3c-83.9,15.3-280,61.7-413.2,176.3c-10.4,8.9-15.5,21.8-14,35.4
				c1.5,13.7,9.3,25.4,21.5,32c58.5,31.6,159.5,62.6,311.6,34.2L896.7,746.3z M937.1,739.9L937.1,739.9L937.1,739.9z"/>
		</g>
		<g>
			<path class="st4" d="M2063.5,714.7l48.5,143.4l2.7,8l40.9,120.6l20.2,59.6c78.2,16.2,144.2,17.4,198.8,10.6
				c62.3-7.8,110-26,144.2-44.6c41.1-22.2,47.4-78.5,12-109C2350,747.8,2063.5,714.7,2063.5,714.7"/>
		</g>
		<g>
			<path class="st5" d="M2466.9,944.1c0,0-78.9,86.8-311.2,42.6L2112,858.1c47.4-4.4,95.6-4.1,125.9,1.9
				C2346.1,881.3,2413.7,915.1,2466.9,944.1"/>
		</g>
		<g class="st3">
			<g>
				<g>
					<path class="st1" d="M2114.8,866.1l40.9,120.6l20.2,59.6c78.2,16.2,144.2,17.4,198.8,10.6c-15.3-49-42-72.1-42-96.5
						c0-28.1,134.2-16.3,134.2-16.3c-49.6-32.6-177.7-67.9-255.6-89.6C2172.6,843.6,2139.9,851.9,2114.8,866.1"/>
				</g>
			</g>
		</g>
		<g class="st6">
			<g>
				<g>
					<path class="st2" d="M2526.2,939.5c-149.1-117.5-361.8-154.5-442.4-164.8l-20.3-60c0,0,286.5,33.1,467.3,188.7
						c22.3,19.2,28,48.7,18.9,73.4C2546.6,962.7,2538.9,949.4,2526.2,939.5"/>
				</g>
			</g>
		</g>
		<g>
			<path class="st1" d="M2106.6,812.3c4.7,0.4,8.6,0.7,12.8,1.2c4.1,0.4,8.2,1,12.3,1.5c8.1,1.1,16.1,2.4,24.2,3.7
				c16,2.7,31.9,6,47.6,9.7c31.5,7.5,62.5,16.4,92.9,27.2c30.3,10.9,60.3,22.5,89.2,36.6c29,13.8,56.7,30.3,82.8,48.9
				c1.4,1,1.8,3,0.7,4.5c-0.8,1.2-2.3,1.6-3.5,1.2l-0.1,0c-30.6-9.3-60.1-19.8-90.1-28.7c-29.7-9.6-59.7-18-89.9-25.4l-22.7-5.4
				l-22.8-4.8c-15.2-3.1-30.4-5.9-45.6-8.4c-15.2-2.6-30.5-4.7-45.7-6.8c-7.6-0.9-15.2-1.9-22.8-2.6l-11.3-1.1
				c-3.7-0.4-7.6-0.7-10.8-0.8l-0.5,0c-14-0.8-24.7-12.9-23.8-26.9c0.8-14,12.9-24.7,26.9-23.8
				C2106.3,812.3,2106.5,812.3,2106.6,812.3"/>
		</g>
		<g>
			<path class="st1" d="M2309.9,1086.3c-41.6,0-88-4.4-139.3-15c-8.8-1.8-16-8.2-18.9-16.7l-112.3-331.7c-2.8-8.2-1.2-17.3,4.3-24.1
				c5.5-6.8,14-10.3,22.7-9.3c12,1.4,296.4,35.9,481,194.7c22.9,19.7,34.6,49.3,31.4,79.3c-3.2,30.2-21.1,56.8-47.9,71.3
				C2483.1,1060.6,2410.3,1086.3,2309.9,1086.3z M2195.2,1024.3c152.1,28.4,253.1-2.6,311.6-34.2c12.2-6.6,20.1-18.3,21.5-32
				c1.5-13.6-3.6-26.5-14-35.4C2381.1,808,2185,761.7,2101.1,746.3L2195.2,1024.3z"/>
		</g>
		<g>
			<path class="st7" d="M1867.3,616.9c0,0,126.8-42.3,161.2-137.8c12.6-34.8,57.2-44.1,81.5-16.1c55.5,63.8,109.2,176.9,33.7,345.9
				C2143.7,808.9,2024.2,648.9,1867.3,616.9"/>
		</g>
		<g class="st3">
			<g>
				<g>
					<path class="st1" d="M2110,463c-7.8-9-17.8-14.1-28.1-15.8c28.4,65.4,37.1,154.7-14.5,270.2c0,0-54.5-72.9-138.2-130.1
						c-33.6,20.1-62,29.6-62,29.6c156.9,31.9,276.4,192,276.4,192C2219.2,639.9,2165.6,526.7,2110,463"/>
				</g>
			</g>
		</g>
		<g class="st6">
			<g>
				<g>
					<path class="st2" d="M2069.2,504.5c7.9-21.8,28.3-33.6,48.4-32.5c-2.5-3.1-5-6.2-7.6-9.1c-24.3-27.9-68.9-18.7-81.5,16.1
						c-34.5,95.6-161.2,137.8-161.2,137.8c20.3,4.1,40,10.4,58.8,18.2C1962.4,619.5,2042.8,577.6,2069.2,504.5"/>
				</g>
			</g>
		</g>
		<g class="st6">
			<g>
				<g>
					<path class="st2" d="M2008.6,680.9c81.9,56.9,135.1,128,135.1,128c2.2-4.9,4.3-9.8,6.3-14.7
						C2119.2,761.3,2069.6,714.8,2008.6,680.9"/>
				</g>
			</g>
		</g>
		<g>
			<path class="st1" d="M2143.7,834.3c-8,0-15.5-3.7-20.4-10.2c-1.1-1.5-115.8-152.7-261.1-182.3c-11.3-2.3-19.6-11.9-20.3-23.4
				c-0.7-11.5,6.4-22,17.3-25.6c1.3-0.4,115.6-39.8,145.4-122.4c9.1-25.2,30.1-43.2,56.2-48.1c25.6-4.8,51.2,4.1,68.4,23.9
				c61.6,70.7,118.2,192.8,37.8,373c-3.7,8.2-11.4,13.9-20.4,14.9C2145.6,834.3,2144.6,834.3,2143.7,834.3z M1937.2,612.2
				c89.9,37.5,161.3,106.4,198.6,147.7c46.1-134.4,2.5-225.7-45-280.2c-7.6-8.7-17-8-20.7-7.3c-8.2,1.5-14.8,7.3-17.7,15.4
				C2030.9,547.4,1979.2,587.9,1937.2,612.2z"/>
		</g>
		<g>
			<path class="st7" d="M1130.4,616.9c0,0-126.8-42.3-161.2-137.8c-12.6-34.8-57.2-44.1-81.5-16.1
				c-55.5,63.8-109.2,176.9-33.7,345.9C854,808.9,973.5,648.9,1130.4,616.9"/>
		</g>
		<g class="st3">
			<g>
				<g>
					<path class="st1" d="M887.7,463c7.8-9,17.8-14.1,28.1-15.8c-28.4,65.4-37.1,154.7,14.5,270.2c0,0,54.5-72.9,138.2-130.1
						c33.6,20.1,62,29.6,62,29.6c-156.9,31.9-276.4,192-276.4,192C778.5,639.9,832.2,526.7,887.7,463"/>
				</g>
			</g>
		</g>
		<g class="st6">
			<g>
				<g>
					<path class="st2" d="M928.6,504.5c-7.9-21.8-28.3-33.6-48.4-32.5c2.5-3.1,5-6.2,7.6-9.1c24.3-27.9,68.9-18.7,81.5,16.1
						c34.5,95.6,161.2,137.8,161.2,137.8c-20.3,4.1-40,10.4-58.8,18.2C1035.3,619.5,954.9,577.6,928.6,504.5"/>
				</g>
			</g>
		</g>
		<g class="st6">
			<g>
				<g>
					<path class="st2" d="M989.1,680.9c-81.9,56.9-135.1,128-135.1,128c-2.2-4.9-4.3-9.8-6.3-14.7
						C878.5,761.3,928.1,714.8,989.1,680.9"/>
				</g>
			</g>
		</g>
		<g>
			<path class="st1" d="M854,834.3c-0.9,0-1.9-0.1-2.8-0.2c-9-1-16.7-6.7-20.4-14.9c-80.4-180.1-23.9-302.3,37.8-373
				c17.2-19.8,42.8-28.7,68.4-23.9c26.1,4.9,47.1,22.9,56.2,48.1c29.8,82.6,144.2,122,145.4,122.4c10.9,3.7,18,14.2,17.3,25.7
				c-0.7,11.5-9,21-20.3,23.3c-145.3,29.6-260,180.8-261.2,182.3C869.5,830.6,862,834.3,854,834.3z M923.5,472
				c-4.6,0-11.1,1.4-16.6,7.7c-47.5,54.5-91.1,145.9-45,280.2c37.3-41.4,108.7-110.2,198.6-147.7c-42-24.3-93.7-64.8-115.2-124.5
				c-2.9-8.1-9.5-13.8-17.7-15.4C926.6,472.2,925.2,472,923.5,472z"/>
		</g>
		<g>
			<path class="st2" d="M2410.4,2105.4c-23.4,275.1-236.9,496.2-510.9,529.9c-115.9,14.3-251.1,24.5-400.7,24.5
				c-149.6,0-284.8-10.2-400.7-24.5c-273.7-33.7-486.9-254.3-510.8-528.9c-0.1-0.4-0.1-0.7-0.1-1.1c-12-141.1-13-278.4-7.7-404.9
				c0.2-5.4,0.4-10.8,0.7-16.1c0.7-15.7,1.5-31.3,2.4-46.6c4.6-78.8,11.5-152.6,19.3-219.4c3.8-32.9,7.9-64.1,12.1-93.4
				c3.9-27.5,7.9-53.5,11.8-77.5c39.6-243.1,174.2-461.8,376.8-601.9c54.7-37.8,115-67.1,186.5-97.8c1.7-0.6,3.4-1.2,5.1-1.8
				c101.3-36.1,207.5-53.6,313.5-52.6c100.1,1,200,18.5,295.6,52.6c1.7,0.6,3.4,1.2,5.1,1.8c71.5,30.6,131.8,60,186.5,97.8
				c146.6,101.3,257.5,243.8,322.7,407c24.9,62.4,43.1,127.7,54.1,194.9c3.9,23.7,7.8,49.3,11.7,76.4
				c14.9,105,28.8,234.2,34.7,377.3C2423.4,1827.4,2422.4,1964.5,2410.4,2105.4"/>
		</g>
		<g>
			<path class="st4" d="M587.4,2106.5c-0.1-0.4-0.1-0.7-0.1-1.1c-12-141.1-13-278.4-7.7-404.9c0.2-5.4,0.4-10.8,0.7-16.1
				c173.3-4.8,323.9,2.3,323.9,2.3S925.8,2123.4,587.4,2106.5"/>
		</g>
		<g>
			<path class="st4" d="M2317.8,1052.6c-81.1,48.5-175.8,76.3-277.2,76.3c-298.8,0-541-242.3-541-541c0-32.2,2.8-63.8,8.2-94.5
				c100.1,1,200,18.5,295.6,52.6c1.7,0.6,3.4,1.2,5.1,1.8c71.5,30.6,131.8,60,186.5,97.8C2141.7,746.9,2252.6,889.4,2317.8,1052.6"
				/>
		</g>
		<g>
			<path class="st5" d="M1725.7,2310c0,125.3-101.6,226.9-226.9,226.9s-226.9-101.6-226.9-226.9c0-125.3,101.6-226.9,226.9-226.9
				S1725.7,2184.7,1725.7,2310"/>
		</g>
		<g>
			<path class="st1" d="M1282.1,1052.5c10.6,83.1-41.1,158.2-115.5,167.7c-74.4,9.5-143.4-50.1-154-133.2
				c-10.6-83.1,41.1-158.2,115.5-167.7C1202.5,909.8,1271.5,969.4,1282.1,1052.5"/>
		</g>
		<g>
			<path class="st2" d="M1230.7,1040.4c3.7,28.6-14.1,54.5-39.8,57.7c-25.6,3.3-49.3-17.3-53-45.9c-3.7-28.6,14.1-54.5,39.8-57.7
				C1203.3,991.3,1227.1,1011.8,1230.7,1040.4"/>
		</g>
		<g>
			<path class="st1" d="M1715.6,1052.5c-10.6,83.1,41.1,158.2,115.5,167.7c74.4,9.5,143.4-50.1,154-133.2
				c10.6-83.1-41.1-158.2-115.5-167.7C1795.2,909.8,1726.3,969.4,1715.6,1052.5"/>
		</g>
		<g>
			<path class="st2" d="M1767,1040.4c-3.7,28.6,14.1,54.5,39.8,57.7c25.6,3.3,49.3-17.3,53-45.9c3.7-28.6-14.1-54.5-39.8-57.7
				C1794.4,991.3,1770.6,1011.8,1767,1040.4"/>
		</g>
		<g class="st3">
			<g>
				<g>
					<path class="st1" d="M2418.2,1701.2c-315.8,161.3-918.6,213.6-918.6,213.6s-604.6-52.4-920-214.3c0.8-21.2,1.9-42.1,3.1-62.7
						c4.6-78.8,11.5-152.6,19.3-219.4c3.8-32.9,7.9-64.1,12.1-93.4c123.9-88.1,390.6-217.9,885.5-217.9
						c492.8,0,759.3,128.7,883.9,216.8C2398.4,1428.9,2412.3,1558.1,2418.2,1701.2"/>
				</g>
			</g>
		</g>
		<g>
			<path class="st5" d="M2397.1,1418.4c0,0-208.1-260.5-897.6-260.5c-689.5,0-897.6,260.5-897.6,260.5
				c-7.8,66.9-14.7,140.7-19.3,219.4c257.8,173.2,916.9,227.6,916.9,227.6s659.1-54.4,916.9-227.6
				C2411.8,1559.1,2405,1485.3,2397.1,1418.4"/>
		</g>
		<g class="st3">
			<g>
				<g>
					<path class="st1" d="M2378.9,1415.6c0,0-25.7,289.9-880.1,289.9s-880.1-289.9-880.1-289.9c-39.2,87.3-28.3,194.9-28.3,194.9
						c249.5,206.1,908.5,188.8,908.5,188.8s659,17.3,908.5-188.8C2407.3,1610.5,2418.1,1502.9,2378.9,1415.6"/>
				</g>
			</g>
		</g>
		<g class="st6">
			<g>
				<g>
					<path class="st2" d="M602,1479.4c0,0,208.1-260.5,897.6-260.5c689.5,0,897.6,260.5,897.6,260.5c5.9,50.1,11.2,104,15.4,161
						c1.3-0.8,2.6-1.7,3.9-2.5c-4.6-78.8-11.5-152.6-19.3-219.4c0,0-208.1-260.5-897.6-260.5c-689.5,0-897.6,260.5-897.6,260.5
						c-7.8,66.9-14.7,140.7-19.3,219.4c1.3,0.8,2.6,1.7,3.9,2.5C590.8,1583.4,596.2,1529.4,602,1479.4"/>
				</g>
			</g>
		</g>
		<g class="st6">
			<g>
				<g>
					<path class="st2" d="M2418.2,1701.2c-5.8-143.1-19.8-272.3-34.7-377.3c-3.9-27.1-7.8-52.7-11.7-76.4
						c-11-67.2-29.2-132.6-54.1-194.9c-65.1-163.1-176.1-305.6-322.7-407c-54.7-37.8-115-67.1-186.5-97.8c-1.7-0.6-3.4-1.2-5.1-1.8
						c-95.6-34-195.5-51.6-295.6-52.6c-106-1-212.2,16.5-313.5,52.6c-1.7,0.6-3.4,1.2-5.1,1.8c-71.6,30.6-131.8,60-186.5,97.8
						c-202.6,140.1-337.1,358.8-376.8,601.9c-3.9,24-7.9,50-11.8,77.5c-4.2,29.3-8.3,60.5-12.1,93.4
						c-7.8,66.9-14.7,140.7-19.3,219.4c-1.2,20.6-2.3,41.5-3.1,62.7c-2.4,56.8-3.4,115.9-2.8,176.4c0.4-37.5,1.3-74.4,2.8-110.3
						c0.8-21.2,1.9-42.1,3.1-62.7c4.6-78.8,11.5-152.6,19.3-219.4c3.8-32.9,7.9-64.1,12.1-93.4c3.9-27.5,7.9-53.5,11.8-77.5
						c39.6-243.1,174.2-461.8,376.8-601.9c54.7-37.8,115-67.1,186.5-97.8c1.7-0.6,3.4-1.2,5.1-1.8c101.3-36.1,207.5-53.6,313.5-52.6
						c27.4,0.3,54.8,1.8,82.2,4.5c6.8,0.7,12.9,4.2,17.3,9.4c16.6,19,54.1,38,99.9,48.5c43.1,9.9,82.8,9.9,106.7,1.7
						c6.2-2.1,12.9-1.8,18.9,0.9c61,26.9,113.8,53.8,162.2,87.2c146.6,101.3,257.6,243.8,322.7,407c24.9,62.4,43.1,127.7,54.1,194.9
						c3.9,23.7,7.8,49.3,11.7,76.4c14.9,105,28.8,234.2,34.7,377.3c1.5,35.7,2.4,72.3,2.8,109.5
						C2421.5,1816.5,2420.5,1757.7,2418.2,1701.2"/>
				</g>
			</g>
		</g>
		<g class="st3">
			<g>
				<g>
					<path class="st1" d="M2416.4,1914.8c0,0-86.9,459.9-354.6,310.9c0,0-185.6,164.3-349.9,0c0,0-17.9,258.1-213,258.1
						s-213-258.1-213-258.1c-164.3,164.3-349.9,0-349.9,0c-267.7,149-354.6-310.9-354.6-310.9s-1.4,0.4-4,1.3
						c1.4,62.2,4.6,125.9,10.1,190.4c23.4,274.7,237.2,495.2,510.8,528.9c54.4,6.7,113.2,12.5,175.6,16.8
						c70.5,4.8,145.7,7.7,225,7.7s154.5-2.9,225-7.7c62.5-4.3,121.2-10.1,175.6-16.8c273.6-33.7,487.4-254.2,510.8-528.9
						c5.5-64.5,8.7-128.2,10.1-190.4C2417.8,1915.2,2416.4,1914.8,2416.4,1914.8"/>
				</g>
			</g>
		</g>
		<g>
			<path class="st1" d="M2395.6,1442.9c-7.7,0-15.4-3.7-20.1-10.5c-0.7-1-45.9-63.1-175-124.5c-120.2-57.3-339.6-125.5-701.7-125.5
				c-362.1,0-581.4,68.2-701.7,125.5c-129.5,61.6-174.5,123.9-175,124.5c-7.8,11-23.1,13.7-34.1,6c-11.1-7.7-13.8-22.9-6.2-34
				c7.6-11.1,195.6-271.1,917-271.1c721.4,0,909.3,260.1,917,271.1c7.7,11.2,4.9,26.4-6.2,34.1
				C2405.3,1441.5,2400.4,1442.9,2395.6,1442.9z"/>
		</g>
		<g>
			<path class="st1" d="M1196.5,1372.9c-10.7,34.4-56.3,50.7-101.9,36.6c-45.6-14.1-74-53.5-63.3-87.8
				c10.7-34.4,56.3-50.7,101.9-36.6C1178.8,1299.2,1207.2,1338.5,1196.5,1372.9"/>
		</g>
		<g>
			<path class="st1" d="M1801.1,1372.9c10.7,34.4,56.3,50.7,101.9,36.6c45.6-14.1,74-53.5,63.3-87.8
				c-10.7-34.4-56.3-50.7-101.9-36.6C1818.8,1299.2,1790.4,1338.5,1801.1,1372.9"/>
		</g>
		<g>
			<path class="st1" d="M1498.9,2685.3c-135,0-270.8-8.3-403.8-24.7c-138.3-17-267.8-81.7-364.6-182
				c-96.9-100.4-156.7-232.2-168.5-370.9c-28.9-340.1,5.2-657.6,38.9-864.2c41-251.3,182.2-476.9,387.4-618.7
				c61.7-42.7,128.2-73.4,190.9-100.2c0.5-0.2,0.9-0.4,1.4-0.6l5.2-1.9c201.9-71.9,424.3-71.9,626.2,0c0,0,0,0,0,0l5.1,1.8
				c0.5,0.2,1,0.4,1.4,0.6c62.7,26.8,129.2,57.6,190.9,100.2c205.2,141.9,346.4,367.4,387.4,618.7c33.7,206.6,67.7,524.1,38.9,864.2
				c-11.8,138.8-71.6,270.5-168.5,370.9c-96.8,100.4-226.3,165-364.6,182C1769.7,2677,1633.8,2685.3,1498.9,2685.3z M1198.5,571.5
				c-82,35.1-134.6,62.7-181.3,95c-193.9,134-327.4,347.3-366.2,585.1c-33.2,203.7-66.8,516.8-38.4,851.7
				c22.2,261.5,227.7,474.7,488.7,506.8c130.9,16.1,264.7,24.3,397.6,24.3c132.9,0,266.7-8.2,397.6-24.3
				c260.9-32.1,466.4-245.3,488.7-506.8c28.4-334.8-5.2-648-38.4-851.7c-38.8-237.8-172.2-451.1-366.2-585.1
				c-46.8-32.3-99.4-59.9-181.3-95l-4.4-1.6c-190.9-68-401.1-68-592,0L1198.5,571.5z"/>
		</g>
		<g>
			<path class="st2" d="M1285.9,2225.7v341.2c0,48.3-19.6,92-51.2,123.7c-31.7,31.7-75.4,51.3-123.7,51.3c-96.7,0-175-78.4-175-175
				v-341.2c0,0,73.5-50.9,175-50.9c40.9,0,77.2,8.3,106.1,18.1C1258.5,2207.1,1284.5,2224.7,1285.9,2225.7L1285.9,2225.7z"/>
		</g>
		<g>
			<path class="st4" d="M1285.9,2532.6v34.2c0,48.3-19.6,92-51.2,123.7c-31.7,31.7-75.4,51.3-123.7,51.3c-96.7,0-175-78.4-175-175
				v-34.2C935.9,2532.6,1064.4,2632.3,1285.9,2532.6"/>
		</g>
		<g class="st3">
			<g>
				<g>
					<path class="st1" d="M936,2472.5v94.4c0,96.6,78.3,175,175,175c48.3,0,92-19.6,123.7-51.3c31.7-31.7,51.3-75.4,51.3-123.7
						v-341.2l-0.1-0.1c0-0.1-0.2-0.7-0.6-1.6c-15-36-68.8-25.6-69.9,13.4l-8.6,298.1c-1,36-20.8,69.6-52.9,85.8
						c-13,6.6-28.9,10.9-48.2,10.9C1026.2,2632.3,945.9,2564.6,936,2472.5"/>
				</g>
			</g>
		</g>
		<g>
			<path class="st1" d="M1288.9,2225.7c4.9,12.8,8.1,25.7,10.9,38.5c2.7,12.8,4.9,25.7,6.5,38.5c3.2,25.7,4.2,51.3,4.5,77
				c0.8,51.3,1.9,102.7,2.5,154l0.2,19.3l0.1,9.6l0,4.9l-0.2,5.6c-0.3,7.4-0.3,14.9-1.7,22.2l-1.6,11.1c-0.6,3.7-1.7,7.3-2.5,10.9
				c-7.1,29-20.8,56.3-39.6,79.5c-37.7,46.5-97.2,74.6-157.1,74.3c-29.9-0.2-59.8-7-86.8-20c-27-12.8-50.9-31.9-69.8-54.9
				c-18.6-23.2-32.3-50.4-39.1-79.3c-0.8-3.6-1.9-7.2-2.4-10.8l-1.5-11c-1.3-7.3-1.3-14.7-1.6-22.1l-0.2-5.5l0.1-4.9l0.2-9.6
				l0.3-19.3l2.5-154c0.4-25.7,2-51.3,4.9-77c3-25.7,7-51.3,14.3-77c0.7-2.3,3.1-3.7,5.4-3c1.5,0.4,2.6,1.6,3,3
				c7.3,25.7,11.3,51.3,14.3,77c2.9,25.7,4.4,51.3,4.9,77l2.5,154l0.3,19.3l0.2,9.6l0.1,4.7l0.3,4.1c0.5,5.4,0.5,10.9,1.7,16.2
				l1.4,8c0.5,2.7,1.4,5.2,2.1,7.9c5.8,20.8,15.9,40.4,29.8,56.9c28.2,32.8,70.2,52.6,113.2,52.2c21.5-0.1,42.7-4.9,62-14
				c19.3-9.1,36.7-22.4,50.6-38.7c13.7-16.5,23.8-36,29.3-56.7c0.7-2.6,1.6-5.2,2-7.8l1.3-8c1.2-5.3,1.2-10.7,1.6-16.1l0.3-4.1
				l0.1-4.7l0.1-9.6l0.2-19.3c0.5-51.3,1.7-102.7,2.5-154c0.2-25.7,1.3-51.3,4.5-77c1.6-12.8,3.7-25.7,6.5-38.5
				c2.8-12.8,6-25.7,10.9-38.5c0.6-1.7,2.5-2.5,4.1-1.9C1287.9,2224.1,1288.6,2224.8,1288.9,2225.7"/>
		</g>
		<g>
			<path class="st2" d="M1711.8,2225.7v341.2c0,48.3,19.6,92,51.2,123.7c31.7,31.7,75.4,51.3,123.7,51.3c96.7,0,175-78.4,175-175
				v-341.2c0,0-73.5-50.9-175-50.9c-40.9,0-77.2,8.3-106.1,18.1C1739.2,2207.1,1713.2,2224.7,1711.8,2225.7L1711.8,2225.7z"/>
		</g>
		<g>
			<path class="st4" d="M1711.8,2532.6v34.2c0,48.3,19.6,92,51.2,123.7c31.7,31.7,75.4,51.3,123.7,51.3c96.7,0,175-78.4,175-175
				v-34.2C2061.8,2532.6,1933.3,2632.3,1711.8,2532.6"/>
		</g>
		<g class="st3">
			<g>
				<g>
					<path class="st1" d="M2061.8,2472.5v94.4c0,96.6-78.3,175-175,175c-48.3,0-92-19.6-123.7-51.3c-31.7-31.7-51.3-75.4-51.3-123.7
						v-341.2l0-0.1c0-0.1,0.2-0.7,0.6-1.6c15-36,68.8-25.6,69.9,13.4l8.6,298.1c1,36,20.8,69.6,52.9,85.8
						c13,6.6,28.9,10.9,48.2,10.9C1971.5,2632.3,2051.8,2564.6,2061.8,2472.5"/>
				</g>
			</g>
		</g>
		<g>
			<path class="st1" d="M1714.8,2225.7c4.9,12.8,8.1,25.7,10.9,38.5c2.7,12.8,4.9,25.7,6.5,38.5c3.2,25.7,4.3,51.3,4.5,77
				c0.8,51.3,1.9,102.7,2.5,154l0.2,19.3l0.1,9.6l0.1,4.7l0.3,4.1c0.4,5.4,0.4,10.8,1.6,16.1l1.3,8c0.5,2.6,1.4,5.2,2,7.8
				c5.5,20.7,15.5,40.2,29.3,56.7c14,16.3,31.3,29.6,50.6,38.7c19.3,9.1,40.6,13.9,62,14c43,0.4,85.1-19.4,113.2-52.2
				c13.9-16.5,24-36.1,29.8-56.9c0.7-2.6,1.6-5.2,2.1-7.9l1.4-8c1.2-5.3,1.3-10.8,1.7-16.2l0.3-4.1l0.1-4.7l0.2-9.6l0.3-19.3
				l2.5-154c0.4-25.7,2-51.3,4.9-77c3-25.7,7-51.3,14.3-77c0.7-2.3,3.1-3.7,5.4-3c1.5,0.4,2.6,1.6,3,3c7.3,25.7,11.3,51.3,14.3,77
				c2.9,25.7,4.4,51.3,4.9,77l2.5,154l0.3,19.3l0.2,9.6l0.1,4.9l-0.2,5.5c-0.3,7.4-0.3,14.8-1.6,22.1l-1.5,11
				c-0.6,3.7-1.6,7.2-2.4,10.8c-6.8,28.9-20.5,56.1-39.1,79.3c-18.9,23-42.7,42-69.8,54.9c-27,12.9-56.9,19.8-86.8,20
				c-60,0.2-119.4-27.9-157.1-74.3c-18.8-23.2-32.5-50.6-39.6-79.5c-0.8-3.6-1.9-7.2-2.5-10.9l-1.6-11.1c-1.3-7.4-1.3-14.8-1.7-22.2
				l-0.2-5.6l0-4.9l0.1-9.6l0.2-19.3c0.5-51.3,1.7-102.7,2.5-154c0.2-25.7,1.3-51.3,4.5-77c1.6-12.8,3.7-25.7,6.5-38.5
				c2.8-12.8,6-25.7,10.9-38.5c0.6-1.7,2.5-2.5,4.1-1.9C1713.9,2224.1,1714.5,2224.8,1714.8,2225.7"/>
		</g>
		<g class="st3">
			<g>
				<g>
					<path class="st1" d="M2434,1792.2c-64.2,34.7-350.2,168.8-935,168.8c-581.6,0-867.7-132.6-933.9-168.2
						c2.1-48.8,5.6-96.7,10.3-143.3c17.5-3.3,36.3-0.3,52.6,9.9c2.2,1.3,261.8,154.4,871,154.4c609.2,0,868.8-153.1,871.3-154.6
						c16.6-10.4,35.7-13.3,53.4-9.6C2428.4,1696,2431.9,1743.7,2434,1792.2"/>
				</g>
			</g>
		</g>
		<g>
			<path class="st8" d="M1499,1907c-657.4,0-937.2-169.5-948.8-176.7c-34.5-21.5-45.1-66.9-23.6-101.4
				c21.5-34.5,66.9-45.1,101.4-23.6c2.2,1.3,261.7,154.4,871,154.4s868.8-153.1,871.3-154.7c34.5-21.5,79.7-10.8,101.2,23.7
				c21.5,34.5,10.7,80.1-23.8,101.5C2436.2,1737.6,2156.4,1907,1499,1907"/>
		</g>
		<g class="st6">
			<g>
				<g>
					<path class="st2" d="M591,1643.3c2.3,1.4,272.9,161,908,161c635.1,0,905.7-159.6,908.4-161.2c21.4-13.3,46.8-14.7,68.5-6.1
						c-1.3-2.8-2.7-5.5-4.3-8.2c-21.5-34.5-66.7-45.2-101.2-23.7c-2.6,1.5-262.1,154.7-871.3,154.7c-609.2,0-868.8-153.1-871-154.4
						c-34.5-21.5-79.9-10.9-101.4,23.6c-1.7,2.7-3.1,5.5-4.4,8.3C544.1,1628.6,569.6,1630,591,1643.3"/>
				</g>
			</g>
		</g>
		<g>
			<path class="st1" d="M1499,1931.6c-664.3,0-949.9-173-961.8-180.4c-22.3-13.9-37.8-35.6-43.7-61.1c-5.9-25.5-1.6-51.9,12.3-74.1
				c28.6-46,89.3-60.1,135.2-31.5c2.2,1.3,261.3,150.7,858,150.7c597.3,0,856.2-149.7,858.7-151.2c45.5-28.3,106.1-14.2,134.7,31.8
				c13.9,22.3,18.2,48.6,12.2,74.2c-6,25.6-21.6,47.3-43.8,61.1C2449,1758.5,2163.4,1931.6,1499,1931.6z M589.2,1618.8
				c-16.4,0-32.4,8.2-41.7,23.1c-6.9,11.1-9.1,24.3-6.1,37.1c3,12.8,10.7,23.6,21.9,30.5c11.3,7.1,285.4,173,935.8,173
				c650.5,0,924.5-165.9,935.8-173c11.2-6.9,19-17.8,22-30.7c3-12.8,0.9-26-6.1-37.1c-14.3-23-44.6-30.1-67.4-15.8
				c-2.8,1.7-268,158.4-884.3,158.4c-615.5,0-881.1-156.4-883.7-158C607.2,1621.2,598.1,1618.8,589.2,1618.8z"/>
		</g>
		<g>
			<path class="st9" d="M1619,1911.9c0,66.3-53.7,120-120,120s-120-53.7-120-120c0-66.3,53.7-120,120-120S1619,1845.7,1619,1911.9"
				/>
		</g>
		<g class="st6">
			<g>
				<g>
					<path class="st2" d="M1499,1845.9c57,0,104.7,39.7,116.9,93c2-8.7,3.1-17.7,3.1-27c0-66.3-53.7-120-120-120
						c-66.3,0-120,53.7-120,120c0,9.3,1.1,18.3,3.1,27C1394.4,1885.7,1442.1,1845.9,1499,1845.9"/>
				</g>
			</g>
		</g>
		<g class="st3">
			<g>
				<g>
					<path class="st1" d="M1380.1,1927.9c0,0,37.6,37.3,62.2,34.4c24.6-2.9,0.3-50.4,0.3-50.4l40.1,6c0,0,15.8,21,16.3,35.6
						c0.5,14.6,0,74.7,0,74.7S1380.1,2022.9,1380.1,1927.9"/>
				</g>
			</g>
		</g>
		<g class="st3">
			<g>
				<g>
					<path class="st1" d="M1618,1927.9c0,0-37.6,37.3-62.2,34.4c-24.6-2.9-0.3-50.4-0.3-50.4l-40.1,6c0,0-15.8,21-16.3,35.6
						c-0.5,14.6,0,74.7,0,74.7S1618,2022.9,1618,1927.9"/>
				</g>
			</g>
		</g>
		<g>
			<path class="st1" d="M1499.6,1909.5c-30.1,0-60.5-13.1-57,7.9c1.5,9.1,9.4,15.9,17.8,20.7c18.3,10.4,28.8,30.7,26.9,51.7
				c-2.3,25.4-13,39.6-13,39.6c7.4,1.8,25.2,2.5,25.2,2.5s17.7-0.7,25.2-2.5c0,0-10.6-14.1-13-39.6c-1.9-21,8.6-41.3,26.9-51.7
				c8.4-4.8,16.3-11.6,17.8-20.7C1560,1896.4,1529.7,1909.5,1499.6,1909.5"/>
		</g>
		<g>
			<path class="st1" d="M1499,2056.5c-79.7,0-144.6-64.8-144.6-144.6c0-79.7,64.8-144.5,144.6-144.5s144.6,64.8,144.6,144.5
				C1643.6,1991.6,1578.7,2056.5,1499,2056.5z M1499,1816.5c-52.6,0-95.5,42.8-95.5,95.5c0,52.6,42.8,95.5,95.5,95.5
				s95.5-42.8,95.5-95.5C1594.5,1859.3,1551.7,1816.5,1499,1816.5z"/>
		</g>
		<g class="st0">
			<g>
				<path class="st2" d="M1873.3,1131.2c-4.6,16.4,0.2,32.2,10.9,35.2c10.6,3,23-7.9,27.7-24.4c4.6-16.4-0.2-32.2-10.9-35.2
					C1890.3,1103.8,1878,1114.7,1873.3,1131.2z"/>
			</g>
		</g>
		<g class="st0">
			<g>
				
					<ellipse transform="matrix(0.9624 -0.2715 0.2715 0.9624 -267.1714 342.0444)" class="st2" cx="1102.6" cy="1136.6" rx="20" ry="30.9"/>
			</g>
		</g>
	</g>
</g>
</svg>
